<?xml version="1.0" encoding="UTF-8"?>
<svg id="uuid-ab88a613-5632-47b8-b6ab-d74f1be389de" data-name="Layer 1" xmlns="http://www.w3.org/2000/svg" viewBox="0 0 8 8">
  <rect x="0" width="8" height="8" style="fill: #ffdd24; stroke-width: 0px;"/>
  <polygon points="4 -4 4 4 8 -4 4 -4" style="fill: #ff940f; stroke-width: 0px;"/>
  <polygon points="-1.66 -1.66 4 4 1.17 -4.49 -1.66 -1.66" style="fill: #ff940f; stroke-width: 0px;"/>
  <polygon points="-4 4 4 4 -4 0 -4 4" style="fill: #ff940f; stroke-width: 0px;"/>
  <polygon points="-1.66 9.66 4 4 -4.49 6.83 -1.66 9.66" style="fill: #ff940f; stroke-width: 0px;"/>
  <polygon points="4 12 4 4 0 12 4 12" style="fill: #ff940f; stroke-width: 0px;"/>
  <polygon points="9.66 9.66 4 4 6.83 12.49 9.66 9.66" style="fill: #ff940f; stroke-width: 0px;"/>
  <polygon points="12 4 4 4 12 8 12 4" style="fill: #ff940f; stroke-width: 0px;"/>
  <polygon points="9.66 -1.66 4 4 12.49 1.17 9.66 -1.66" style="fill: #ff940f; stroke-width: 0px;"/>
</svg>